<svg id="_0139_authentication_1" xmlns="http://www.w3.org/2000/svg" xmlns:xlink="http://www.w3.org/1999/xlink" viewBox="0 0 500 500" data-imageid="authentication-1-91" imageName="Authentication 1" class="illustrations_image" style="width: 144px;"><defs><style>.cls-1_authentication-1-91{fill:url(#linear-gradient);}.cls-1_authentication-1-91,.cls-2_authentication-1-91,.cls-3_authentication-1-91,.cls-4_authentication-1-91,.cls-5_authentication-1-91,.cls-6_authentication-1-91,.cls-7_authentication-1-91,.cls-8_authentication-1-91,.cls-9_authentication-1-91,.cls-10_authentication-1-91{stroke-width:0px;}.cls-2_authentication-1-91{isolation:isolate;opacity:.18;}.cls-2_authentication-1-91,.cls-10_authentication-1-91{fill:#68e1fd;}.cls-11_authentication-1-91{stroke:#68e1fd;stroke-miterlimit:10;stroke-width:1.63px;}.cls-11_authentication-1-91,.cls-8_authentication-1-91{fill:#fff;}.cls-3_authentication-1-91{fill:url(#linear-gradient-4-authentication-1-91);}.cls-4_authentication-1-91{fill:url(#linear-gradient-2-authentication-1-91);}.cls-5_authentication-1-91{fill:url(#linear-gradient-3-authentication-1-91);}.cls-6_authentication-1-91{fill:url(#linear-gradient-5-authentication-1-91);}.cls-7_authentication-1-91{fill:url(#linear-gradient-6-authentication-1-91);}.cls-9_authentication-1-91{fill:#ffaa71;}</style><linearGradient id="linear-gradient-authentication-1-91" x1="441.48" y1="1600.83" x2="238.68" y2="1577.89" gradientTransform="translate(-105.56 1808.38) scale(1 -1)" gradientUnits="userSpaceOnUse"><stop offset="0" stop-color="#231f20" stop-opacity="0"/><stop offset="1" stop-color="#231f20"/></linearGradient><linearGradient id="linear-gradient-2-authentication-1-91" x1="290.3" y1="1427.86" x2="392.68" y2="1512.72" xlink:href="#linear-gradient-authentication-1-91"/><linearGradient id="linear-gradient-3-authentication-1-91" x1="197.24" y1="1572.26" x2="307.8" y2="1572.26" gradientTransform="translate(-31 1810.33) scale(1 -1)" xlink:href="#linear-gradient-authentication-1-91"/><linearGradient id="linear-gradient-4-authentication-1-91" x1="382.17" y1="1591.91" x2="392.13" y2="1395.23" xlink:href="#linear-gradient-authentication-1-91"/><linearGradient id="linear-gradient-5-authentication-1-91" x1="252.35" y1="1495.3" x2="252.35" y2="1433.81" gradientTransform="translate(-31 1810.33) scale(1 -1)" xlink:href="#linear-gradient-authentication-1-91"/><linearGradient id="linear-gradient-6-authentication-1-91" x1="484.99" y1="1727.01" x2="498.52" y2="1460.12" xlink:href="#linear-gradient-authentication-1-91"/></defs><path id="background_authentication-1-91" class="cls-2_authentication-1-91 targetColor" d="M423.83,359.37c-9.52,32.93-29.13,63.99-58.26,82.1-17.59,10.94-37.9,16.85-58.34,20.27-2.1.35-4.19.65-6.33.91-22.57,3.06-45.48,2.56-67.89-1.51-33.02-6.09-64.47-20.38-87.79-44.58-32.93-34.31-36.17-89.12-20.35-133.93,6.33-17.92,15.2-34.92,20.27-53.2,11.77-43.34.39-90.2,10.39-134,2.69-11.89,7.08-23.66,14.52-33.35,6.52-8.71,15.28-15.38,24.32-21.38,27.03-17.73,58.96-29.97,91.27-27.64,32.31,2.33,64.47,21.3,76.53,51.34,8.28,20.63,6.68,44.09,14.21,64.96,8.75,24.28,28.87,42.7,40.27,65.86,9.4,19.14,12.51,40.72,14.29,62.06,2.85,34.2,2.48,69.12-7.08,102.08Z" style="fill: rgb(1, 111, 84);"/><g id="screen_authentication-1-91"><path class="cls-11_authentication-1-91" d="M449.81,78.51v196.93c0,12.86-10.43,23.29-23.29,23.29H128.49c-12.86,0-23.29-10.43-23.29-23.29V78.51c0-.9.06-1.79.16-2.69,1.35-11.75,11.3-20.61,23.13-20.61h298.02c11.83,0,21.78,8.86,23.13,20.61.11.89.16,1.79.16,2.69Z"/><path class="cls-2_authentication-1-91 targetColor" d="M133.03,121h167.88c4.84,0,8.76,3.92,8.76,8.76h0c0,4.84-3.92,8.76-8.76,8.76h-167.88c-4.84,0-8.76-3.92-8.76-8.76h0c0-4.84,3.92-8.76,8.76-8.76Z" style="fill: rgb(1, 111, 84);"/><rect class="cls-2_authentication-1-91 targetColor" x="124.26" y="145.6" width="185.41" height="120.23" rx="8.76" ry="8.76" style="fill: rgb(1, 111, 84);"/><path class="cls-1_authentication-1-91" d="M287.73,140.52c3.99,6.51-1.09,97.69,2.25,102.24,7.84,10.66,24.65,41.22,23.99,54.46-12.55.46-31.26.28-43.66-1.66-2.28-.35-4.7-.82-6.33-2.42-1.39-1.59-2.34-3.51-2.76-5.57l-14.93-51.3c-6.03-20.71-12.05-42.93-5.54-63.5,3.28-10.37,9.55-19.51,15.73-28.46,3.46-5.07-2.14-14.39,4.29-15.47,6.74-1.14,23.6,6.21,26.95,11.67Z"/><path class="cls-10_authentication-1-91 targetColor" d="M449.64,75.82H105.36c1.35-11.75,11.3-20.61,23.13-20.61h298.02c11.83,0,21.78,8.86,23.13,20.61Z" style="fill: rgb(1, 111, 84);"/><rect class="cls-2_authentication-1-91 targetColor" x="124.26" y="91.49" width="185.41" height="17.53" rx="8.76" ry="8.76" style="fill: rgb(1, 111, 84);"/></g><g id="hand_phone_authentication-1-91"><path class="cls-9_authentication-1-91" d="M300.92,402.25v60.38c-22.57,3.06-45.48,2.56-67.89-1.51-.48-9.54-1.76-30.07-4.09-39.8-3.08-12.92-14.12-16-23.98-27.65-9.85-11.65-13.53-56-15.98-63.33-2.46-7.33-17.2-20.27-24.9-28.89-4.49-4.59-5.49-11.57-2.46-17.24,0,0,36.26,17.24,36.26,13.54s-8.28-11.67-8.28-11.67c0,0-21.53-10.13-29.22-18.77s-2.76-19-2.76-19l46.12,16.8,4.29-3.67-17.82-8.61s-17.86-9.23-28.31-17.23c-10.45-7.99-6.12-27.03-6.12-27.03l67.02,30.73-7.99-17.2s-39.96-12.31-51.03-22.8c-11.07-10.49-7.99-22.14-7.99-22.14,0,0,80.56,19.06,91.01,25.23,10.45,6.17,44.88,80.56,46.09,84.22,1.22,3.66,8.04,115.64,8.04,115.64Z"/><path class="cls-4_authentication-1-91" d="M238.94,347.61l-10.75,37.21s-26.75,2.76-35.67-36.9c-8.92-39.66,46.42-.32,46.42-.32Z"/><rect class="cls-10_authentication-1-91 targetColor" x="166.24" y="127.99" width="110.56" height="220.15" rx="19.47" ry="19.47" style="fill: rgb(1, 111, 84);"/><rect class="cls-5_authentication-1-91" x="166.24" y="127.99" width="110.56" height="220.15" rx="19.47" ry="19.47"/><rect class="cls-10_authentication-1-91 targetColor" x="166.24" y="127.76" width="110.56" height="215.46" rx="19.27" ry="19.27" style="fill: rgb(1, 111, 84);"/><rect class="cls-8_authentication-1-91" x="172.09" y="132.74" width="99.44" height="193.44" rx="17.31" ry="17.31"/><path class="cls-2_authentication-1-91 targetColor" d="M224.58,219.09c-23.95,0-43.36,19.4-43.37,43.34,0,23.95,19.4,43.36,43.34,43.37,23.95,0,43.36-19.4,43.37-43.34,0-23.94-19.4-43.35-43.34-43.37ZM224.58,298.43c-19.49,0-35.29-15.79-35.3-35.28,0-19.49,15.79-35.29,35.28-35.3,19.49,0,35.29,15.79,35.3,35.28h0c-.02,19.49-15.8,35.27-35.28,35.3Z" style="fill: rgb(1, 111, 84);"/><path class="cls-10_authentication-1-91 targetColor" d="M203.94,255.15c-.21,0-.42-.04-.62-.11-.84-.35-1.24-1.3-.91-2.14,0-.15,6.43-15.5,22.15-15.02.91.03,1.62.79,1.6,1.7,0,0,0,0,0,0-.01.9-.75,1.61-1.65,1.6-.01,0-.03,0-.04,0-13.5-.38-18.8,12.41-19,12.96-.25.63-.86,1.04-1.53,1.03Z" style="fill: rgb(1, 111, 84);"/><path class="cls-10_authentication-1-91 targetColor" d="M246.33,261.43c-.88,0-1.6-.68-1.65-1.56-.15-7.37-4.61-13.97-11.4-16.85-.85-.3-1.3-1.24-1-2.09.28-.85,1.2-1.31,2.05-1.03.01,0,.03,0,.04.01,8.09,3.27,13.44,11.05,13.6,19.77.04.91-.65,1.68-1.56,1.74h-.09Z" style="fill: rgb(1, 111, 84);"/><path class="cls-10_authentication-1-91 targetColor" d="M242.99,274.39c-.37,0-.72-.12-1.01-.34-.71-.56-.84-1.59-.28-2.31,1.22-1.82,2-3.89,2.28-6.07.05-.91.83-1.6,1.74-1.55.91.05,1.6.83,1.55,1.74,0,.06-.01.12-.02.18-.36,2.77-1.39,5.42-2.99,7.71-.31.39-.77.62-1.27.63Z" style="fill: rgb(1, 111, 84);"/><path class="cls-10_authentication-1-91 targetColor" d="M209.44,257.16c-.23,0-.46-.05-.67-.15-.82-.37-1.19-1.34-.82-2.17,2.61-5.87,8.01-10.03,14.35-11.07,4.9-.8,9.58.46,12.17,3.27.65.64.65,1.68.01,2.33s-1.68.65-2.33.01c-.04-.04-.07-.07-.1-.11-1.82-1.98-5.45-2.86-9.23-2.24-5.25.85-9.71,4.3-11.87,9.16-.27.59-.86.97-1.51.98Z" style="fill: rgb(1, 111, 84);"/><path class="cls-10_authentication-1-91 targetColor" d="M229.06,285.55c-.9.01-1.64-.71-1.65-1.61,0-.45.18-.89.5-1.2,16.96-16.53,7.6-28.92,7.6-29.04-.42-.8-.12-1.8.69-2.22.6-.32,1.33-.23,1.85.21.11.14,11.18,14.84-7.87,33.41-.3.29-.7.45-1.11.46Z" style="fill: rgb(1, 111, 84);"/><path class="cls-10_authentication-1-91 targetColor" d="M203.84,270.27c-.65,0-1.24-.37-1.51-.96-1.49-3.34-.54-9.51-.43-10.2.16-.89.99-1.5,1.89-1.37.9.15,1.5,1,1.36,1.89,0,0,0,0,0,0-.35,2.23-.63,6.47.19,8.31.38.82.02,1.79-.8,2.17-.22.1-.45.15-.69.15h0Z" style="fill: rgb(1, 111, 84);"/><path class="cls-10_authentication-1-91 targetColor" d="M206.72,277.99c-.9.01-1.64-.71-1.66-1.61,0-.53.24-1.03.67-1.34,2.65-1.99,1.93-9.33.84-13.5-.22-.88.3-1.77,1.18-2,.86-.24,1.76.27,1.99,1.14,0,.01,0,.03.01.04.35,1.27,3.22,13.01-2.04,16.95-.28.22-.63.33-.99.33Z" style="fill: rgb(1, 111, 84);"/><path class="cls-10_authentication-1-91 targetColor" d="M210.83,281.8c-.91,0-1.65-.74-1.64-1.65,0-.56.29-1.09.77-1.39.25-.16,5.83-3.8,3.5-13.12-1.51-6.05,0-9.84,1.66-11.94,2.41-2.97,6.05-4.66,9.87-4.6.88-.05,1.63.62,1.68,1.5,0,.03,0,.05,0,.08.04.9-.67,1.66-1.57,1.7,0,0,0,0-.01,0-2.82-.07-5.53,1.14-7.35,3.31-1.66,2.19-2.04,5.37-1.09,9.16,2.93,11.73-4.64,16.47-4.95,16.72-.26.16-.56.24-.86.24Z" style="fill: rgb(1, 111, 84);"/><path class="cls-10_authentication-1-91 targetColor" d="M227.91,273.56c-.9-.01-1.62-.76-1.61-1.66,0-.35.13-.7.34-.98,2.44-3.19,4.4-7.99,3.43-10.51-.39-.97-1.29-1.63-2.33-1.7-1.81-.34-3.1-.14-3.88.62-1.36,1.27-1.17,4.27-.99,5.29.23.88-.3,1.78-1.18,2.01s-1.78-.3-2.01-1.18c-.02-.08-.04-.16-.04-.24-.1-.54-.91-5.43,1.9-8.22,1.58-1.57,3.88-2.08,6.81-1.52,2.17.29,4.01,1.75,4.79,3.8,1.49,3.94-.98,9.85-3.9,13.67-.32.41-.82.63-1.34.61Z" style="fill: rgb(1, 111, 84);"/><path class="cls-10_authentication-1-91 targetColor" d="M216.15,284.17c-.91,0-1.64-.75-1.64-1.66,0-.44.18-.86.5-1.17,4.56-4.43,4.43-11.06,4.43-11.12-.03-.91.69-1.67,1.6-1.7.91-.03,1.67.69,1.7,1.6,0,.33.19,8.12-5.43,13.58-.31.3-.72.47-1.15.47Z" style="fill: rgb(1, 111, 84);"/><path class="cls-10_authentication-1-91 targetColor" d="M222.25,285.94c-.24,0-.48-.06-.7-.16-.82-.38-1.17-1.35-.79-2.17,0,0,0,0,0,0l3.32-7.03c.41-.81,1.4-1.13,2.21-.72.78.4,1.11,1.33.76,2.13l-3.32,7.03c-.27.58-.86.94-1.49.94Z" style="fill: rgb(1, 111, 84);"/><path class="cls-9_authentication-1-91" d="M283.98,315.16c-5.81-10.8-11.78-21.66-19.72-31.02-7.94-9.36-18.09-17.25-29.9-20.52-2.84-.8-6.33-1.11-8.26,1.17-1.27,1.62-1.27,3.95-.98,6.03.96,6.96,3.59,13.58,7.66,19.3,3.1,4.36,6.99,8.12,9.94,12.58,2.95,4.46,4.98,9.96,3.69,15.14-7.32,29.26-15.09,61.87,4.32,84.96,1.87,2.45,4.23,4.49,6.93,5.98,2.59,1.09,5.34,1.73,8.14,1.89,4.8.49,9.61.75,14.43.79,3.15.21,6.3-.26,9.25-1.38,8.23-3.71,9.39-14.72,9.35-23.75-.1-24.86-3.08-49.23-14.84-71.16Z"/><circle class="cls-2_authentication-1-91 targetColor" cx="204.35" cy="176.81" r="6.07" style="fill: rgb(1, 111, 84);"/><circle class="cls-2_authentication-1-91 targetColor" cx="220.35" cy="176.81" r="6.07" style="fill: rgb(1, 111, 84);"/><circle class="cls-2_authentication-1-91 targetColor" cx="236.33" cy="176.81" r="6.07" style="fill: rgb(1, 111, 84);"/><path class="cls-3_authentication-1-91" d="M276.46,300.87s2.53,1.62,3.23-1.15c.7-2.77,3.91-32.51,3.91-32.51l-7.14-14.53v48.19Z"/><path class="cls-6_authentication-1-91" d="M207.63,332.23h27.43c1.59,0,2.89,1.29,2.89,2.88h0c0,1.59-1.29,2.88-2.89,2.88h-27.43c-1.59,0-2.89-1.29-2.89-2.88h0c0-1.59,1.29-2.88,2.89-2.88Z"/></g><g id="thick_authentication-1-91"><circle class="cls-2_authentication-1-91 targetColor" cx="370.86" cy="180.89" r="36.04" style="fill: rgb(1, 111, 84);"/><path class="cls-7_authentication-1-91" d="M362.87,194.92l-26.14-28.94c-1.86-1.96-2.04-4.97-.43-7.14,1.85-2.34,5.24-2.73,7.58-.88.23.18.44.38.64.6l21,23.26c1.36,1.49,3.66,1.6,5.15.24.06-.05.11-.11.17-.16l50.37-52.05c2.07-2.14,5.49-2.2,7.63-.13.21.2.4.42.58.66,1.54,2.23,1.26,5.24-.66,7.14l-55.73,57.57c-2.69,2.76-7.11,2.82-9.87.13-.1-.1-.2-.2-.29-.3Z"/><path class="cls-10_authentication-1-91 targetColor" d="M362.87,191.92l-26.14-28.94c-1.86-1.96-2.04-4.97-.43-7.14,1.84-2.33,5.23-2.73,7.56-.88.24.19.46.39.66.62l21,23.19c1.35,1.49,3.66,1.6,5.15.25.06-.05.11-.11.17-.16l50.37-52.02c2.07-2.14,5.49-2.2,7.63-.13.21.2.4.42.58.66,1.54,2.23,1.26,5.24-.66,7.14l-55.73,57.57c-2.67,2.77-7.08,2.84-9.85.17-.11-.1-.21-.21-.31-.32Z" style="fill: rgb(1, 111, 84);"/></g></svg>