<svg id="_0311_customer_service" xmlns="http://www.w3.org/2000/svg" viewBox="0 0 500 500" data-imageid="customer-service-68" imageName="Customer Service" class="illustrations_image" style="width: 144px;"><defs><style>.cls-1_customer-service-68{fill:#fff;}.cls-2_customer-service-68{fill:#f4a28c;}.cls-3_customer-service-68{fill:#a5a5a5;}.cls-4_customer-service-68{opacity:.03;}.cls-4_customer-service-68,.cls-5_customer-service-68{fill:#000001;}.cls-6_customer-service-68{fill:#ce8172;}.cls-7_customer-service-68{opacity:.44;}.cls-7_customer-service-68,.cls-8_customer-service-68,.cls-9_customer-service-68{fill:none;}.cls-10_customer-service-68{fill:#e6e6e6;}.cls-8_customer-service-68{opacity:.08;}.cls-9_customer-service-68{opacity:.31;}.cls-11_customer-service-68{fill:#24285b;}.cls-12_customer-service-68{fill:#ffd200;}.cls-13_customer-service-68{fill:#68e1fd;}</style></defs><path id="bg_customer-service-68" class="cls-4_customer-service-68" d="m166.85,60.15C56.34,79.23,2.72,187.31,14.9,298.79c3.1,28.36,11.36,53.27,27.9,69.29,66.12,64.09,341.35,76.91,409.49-21.54,68.14-98.45,29.71-258.56-65.87-279.8-47.14-10.48-141.63-20.05-219.57-6.59Z"/><g id="clock_customer-service-68"><circle class="cls-3_customer-service-68" cx="201.56" cy="82.85" r="47.19"/><circle class="cls-10_customer-service-68" cx="201.56" cy="82.85" r="33.17"/><path class="cls-3_customer-service-68" d="m214.93,96.15c-.48,0-.97-.16-1.36-.49l-13.37-11.17c-.48-.41-.76-1-.76-1.63v-22.22c0-1.18.95-2.13,2.13-2.13s2.13.95,2.13,2.13v21.22l12.61,10.53c.9.75,1.02,2.1.27,3-.42.5-1.03.76-1.63.76Z"/></g><g id="cs_customer-service-68"><path class="cls-12_customer-service-68" d="m427.69,396.9s.86,26.05-17.96,32.18c-18.82,6.13-83.18,16.35-115.37-3.07-32.18-19.41-12.47-44.95,14.97-42.91s118.36,13.79,118.36,13.79Z"/><path class="cls-12_customer-service-68" d="m400.19,188.99s-5.7-33.67,18.82-41.36c24.52-7.68,59.77.49,56.7,37.27-3.07,36.78-48.02,212-48.02,212l-51.08-3.58s40.01-127.71,23.58-204.33Z"/><path class="cls-2_customer-service-68" d="m347.66,234.88l50.49,11.92-16.53,70.85c-3.75,16.06-20.19,25.7-36.03,21.12l-92.26-26.66s-12.6,12.26-23.5,7.49c-10.9-4.77,10.56-22.14,21.11-21.8,10.56.34,94.82,8.17,94.82,8.17l1.89-71.1Z"/><g class="cls-8_customer-service-68"><path class="cls-5_customer-service-68" d="m347.66,234.88l50.49,11.92-16.53,70.85c-3.75,16.06-20.19,25.7-36.03,21.12l-92.26-26.66s-12.6,12.26-23.5,7.49c-10.9-4.77,10.56-22.14,21.11-21.8,10.56.34,94.82,8.17,94.82,8.17l1.89-71.1Z"/></g><polygon class="cls-2_customer-service-68" points="346.61 120.76 358.96 164.31 336.66 174.51 337.6 136.93 346.61 120.76"/><g class="cls-9_customer-service-68"><path class="cls-6_customer-service-68" d="m337.31,144.26s4.98-1.65,8.31-6.4c0,0,.7,9.21-8.29,19.45l-.02-13.05Z"/></g><path class="cls-2_customer-service-68" d="m318.36,122.18s1.37,15.33,5.69,24.92c1.75,3.89,6.4,5.64,10.27,3.83,4.8-2.25,10.63-6.68,10.9-14.98l2.18-14.04s1.06-8.85-8.58-13.47c-9.63-4.63-21.76,4.44-20.46,13.74Z"/><path class="cls-2_customer-service-68" d="m319.72,131.79l-3.18,6.59c-.79,1.63.39,3.52,2.19,3.54l5.99.06-5-10.19Z"/><g class="cls-8_customer-service-68"><path class="cls-5_customer-service-68" d="m406.92,192.57s16.83,6.09,17.3,42.31c.47,36.22-21.98,100.11-21.64,133.24s-40.62,72.43-102.25,36.45c-61.63-35.98,51.02-48.28,51.02-48.28l55.57-163.71Z"/></g><path class="cls-11_customer-service-68" d="m390.57,336.31s7.49,45.78-13.96,57.02c-21.46,11.24-76.28,11.24-76.28,11.24l7.82,59.77h-79.29l-2.04-116.47,86.78-11.56h76.97Z"/><rect class="cls-10_customer-service-68" x="30.26" y="324.75" width="244.18" height="23.12"/><polygon class="cls-10_customer-service-68" points="105.87 217.09 57.85 324.75 131.41 324.75 131.41 315.17 79.3 310.06 113.02 224.24 105.87 217.09"/><polygon class="cls-11_customer-service-68" points="135.27 290.86 124.17 290.8 86.41 171.7 94.83 163.28 135.27 290.86"/><rect class="cls-12_customer-service-68" x="163.08" y="316.19" width="76.97" height="8.56"/><path class="cls-11_customer-service-68" d="m318.26,114.67s-4.23,16.35,18.51,17.62l14.69,5.57s5.99-13.49,2.67-25.24c-3.32-11.75-31.39-21.97-35.87,2.04Z"/><circle class="cls-11_customer-service-68" cx="349.7" cy="96.09" r="9.26"/><path class="cls-11_customer-service-68" d="m329,154.62l-.14-1.06c14.33-1.95,14.14-21.55,14.14-21.75l1.07-.02c0,.21.22,20.75-15.06,22.83Z"/><circle class="cls-11_customer-service-68" cx="327.12" cy="154.1" r="3.35"/><path class="cls-2_customer-service-68" d="m336.77,132.29s-.92-5.85,3.54-6.18c4.46-.33,5.85,8.12.03,9.97l-3.57-3.78Z"/><path class="cls-13_customer-service-68 targetColor" d="m336.66,174.51l22.3-10.2s36.38-.35,47.96,28.26c11.58,28.61-16.35,143.74-16.35,143.74h-76.97s-2.04-38.16-10.22-79.03c-8.17-40.87-.89-55.87,33.27-82.76Z" style="fill: rgb(1, 111, 84);"/><g class="cls-8_customer-service-68"><path class="cls-5_customer-service-68" d="m357.16,185.9s-21.05,13.87-20.93,41.17c.12,27.3,6.19,78.73-12.46,78.41l-12.04,8.26,1.88,22.56h50.82s22.6-1.65,26.29-63.56c3.68-61.91-33.56-86.84-33.56-86.84Z"/></g><path class="cls-2_customer-service-68" d="m349.7,220.23l50.49,11.92-16.53,70.85c-3.75,16.06-20.19,25.7-36.03,21.12l-92.26-26.66s-12.6,12.26-23.5,7.49c-10.9-4.77,10.56-22.14,21.11-21.8,10.56.34,94.82,8.17,94.82,8.17l1.89-71.1Z"/><rect class="cls-12_customer-service-68" x="254.27" y="280.94" width="6.9" height="21.2"/><path class="cls-13_customer-service-68 targetColor" d="m331.47,178.68l-.99-14.37,28.48-7,3.7,7.18s-6.18,13.24-31.19,14.19Z" style="fill: rgb(1, 111, 84);"/><rect class="cls-3_customer-service-68" x="53.76" y="347.86" width="194.63" height="116.47"/><path class="cls-13_customer-service-68 targetColor" d="m349.7,220.23s1.16-38.82,16.55-42.61c15.38-3.79,44.93-1.45,33.94,54.53l-50.49-11.92Z" style="fill: rgb(1, 111, 84);"/><g class="cls-7_customer-service-68"><path class="cls-1_customer-service-68" d="m349.7,220.23s1.16-38.82,16.55-42.61c15.38-3.79,44.93-1.45,33.94,54.53l-50.49-11.92Z"/></g></g><g id="sd_customer-service-68" class="cls-8_customer-service-68"><polygon class="cls-5_customer-service-68" points="53.76 346.71 53.76 383.05 248.39 359.75 248.39 346.71 53.76 346.71"/></g></svg>