<svg version="1.1" id="Layer_1" xmlns="http://www.w3.org/2000/svg" xmlns:xlink="http://www.w3.org/1999/xlink" x="0px" y="0px" viewBox="0 0 500 500" style="width: 144px;" xml:space="preserve" data-imageid="map-65" imageName="Map" class="illustrations_image">
<style type="text/css">
	.st0_map-65{fill:#C9C9C9;}
	.st1_map-65{fill:#FFF3D9;}
	.st2_map-65{fill:#68E1FD;}
	.st3_map-65{opacity:0.1;enable-background:new    ;}
	.st4_map-65{fill:#C66B28;}
	.st5_map-65{opacity:0.28;fill:url(#SVGID_1_);enable-background:new    ;}
	.st6_map-65{opacity:0.28;fill:url(#SVGID_00000153668436356504484050000017830292499136827835_);enable-background:new    ;}
	.st7_map-65{opacity:0.28;fill:url(#SVGID_00000070110525778476587440000005937872663609708439_);enable-background:new    ;}
	.st8_map-65{opacity:0.28;fill:url(#SVGID_00000068638473910666737010000002250221640752491684_);enable-background:new    ;}
	.st9_map-65{opacity:0.28;fill:url(#SVGID_00000064323111427756917110000000138958643804819844_);enable-background:new    ;}
	.st10_map-65{opacity:0.28;fill:url(#SVGID_00000156570892646706066930000008479480797020132236_);enable-background:new    ;}
	.st11_map-65{opacity:0.28;fill:url(#SVGID_00000045612006554486669600000014057045565086049672_);enable-background:new    ;}
	.st12_map-65{opacity:0.28;fill:url(#SVGID_00000038414550693205571940000009625315874861916817_);enable-background:new    ;}
	.st13_map-65{opacity:0.28;fill:url(#SVGID_00000171694218645532401660000012757667007662884233_);enable-background:new    ;}
	.st14_map-65{fill:#2C9135;}
	.st15_map-65{fill:#E55151;}
	.st16_map-65{fill:#B3B3B3;}
	.st17_map-65{fill:#156819;}
	.st18_map-65{fill:#D3894C;}
</style>
<polyline id="Shadow_map-65" class="st0_map-65" points="17.8,288.4 220.4,409.1 373.2,325.1 476.8,265.8 277.8,150.9 "/>
<g id="Map_map-65">
	<polygon class="st1_map-65" points="17.8,288.4 220.9,404.3 362.5,324.2 471.1,224.1 275.2,106.8 176.6,196.9 &#9;"/>
	<polygon class="st2_map-65 targetColor" points="36.4,285.8 222.8,392.1 352.8,318.6 452.6,226.7 272.7,119 182.1,201.7 &#9;" style="fill: rgb(1, 111, 84);"/>
	<polygon class="st3_map-65" points="272.7,119 182.1,201.7 352.8,318.6 452.6,226.7 &#9;"/>
	<polyline class="st1_map-65" points="419.7,206.9 388.3,232.9 307.3,213.1 169.4,302.2 158.7,355.6 138.1,343.8 152.9,291.6 301.9,189.9 &#10;&#9;&#9;381.9,211.6 398.7,194.4 &#9;"/>
	<path class="st4_map-65" d="M409.4,206.2c-0.8,0-1.5-0.7-1.5-1.5c0-0.5,0.2-0.9,0.6-1.2l2.8-2.2c0.6-0.5,1.6-0.4,2.1,0.2s0.4,1.6-0.2,2.1&#10;&#9;&#9;c0,0,0,0-0.1,0.1l-2.8,2.2C410,206.1,409.7,206.2,409.4,206.2z"/>
	<path class="st4_map-65" d="M391.8,219.9c-0.8,0-1.5-0.7-1.5-1.5c0-0.5,0.2-0.9,0.6-1.2l0.1-0.1c0.6-0.5,1.6-0.4,2.1,0.2s0.4,1.6-0.2,2.1&#10;&#9;&#9;c0,0,0,0-0.1,0.1l-0.1,0.1C392.5,219.8,392.1,219.9,391.8,219.9z M397.5,215.5c-0.8,0-1.5-0.7-1.5-1.5c0-0.5,0.2-0.9,0.6-1.2l4-3.1&#10;&#9;&#9;c0.6-0.5,1.6-0.4,2.1,0.2s0.4,1.6-0.2,2.1c0,0,0,0-0.1,0.1l-4,3.1C398.1,215.4,397.8,215.5,397.5,215.5z"/>
	<path class="st4_map-65" d="M385.4,225.4l-4.2-1.3c-0.8-0.2-1.3-1-1.1-1.8c0.2-0.8,1-1.3,1.8-1.1c0,0,0.1,0,0.1,0l2.7,0.8l2.2-1.7&#10;&#9;&#9;c0.6-0.5,1.6-0.4,2.1,0.2s0.4,1.6-0.2,2.1c0,0,0,0-0.1,0.1L385.4,225.4z"/>
	<path class="st4_map-65" d="M372.4,221.4c-0.1,0-0.3,0-0.4-0.1l-4.6-1.3c-0.8-0.2-1.2-1.1-1-1.9c0.2-0.8,1.1-1.2,1.9-1c0,0,0,0,0,0&#10;&#9;&#9;l4.6,1.4c0.8,0.2,1.2,1.1,1,1.9C373.6,221,373,221.4,372.4,221.4L372.4,221.4z M361.3,218.1c-0.1,0-0.3,0-0.4-0.1l-4.6-1.4&#10;&#9;&#9;c-0.8-0.2-1.3-1-1.1-1.8c0.2-0.8,1-1.3,1.8-1.1c0,0,0.1,0,0.1,0l4.6,1.4c0.8,0.2,1.3,1.1,1,1.9C362.6,217.6,362,218.1,361.3,218.1&#10;&#9;&#9;L361.3,218.1z M350.3,214.7c-0.1,0-0.3,0-0.4-0.1l-4.6-1.4c-0.8-0.2-1.3-1-1.1-1.8c0.2-0.8,1-1.3,1.8-1.1c0,0,0.1,0,0.1,0l4.6,1.4&#10;&#9;&#9;c0.8,0.2,1.3,1.1,1,1.9C351.5,214.3,350.9,214.8,350.3,214.7L350.3,214.7z M339.2,211.4c-0.1,0-0.3,0-0.4-0.1l-4.6-1.4&#10;&#9;&#9;c-0.8-0.2-1.2-1.1-1-1.9s1.1-1.2,1.9-1l0,0l4.6,1.4c0.8,0.3,1.2,1.1,1,1.9C340.4,211,339.8,211.4,339.2,211.4L339.2,211.4z&#10;&#9;&#9; M328.1,208.1c-0.1,0-0.3,0-0.4-0.1l-4.6-1.4c-0.8-0.2-1.3-1-1-1.8c0.2-0.8,1-1.3,1.8-1c0,0,0.1,0,0.1,0l4.6,1.4&#10;&#9;&#9;c0.8,0.2,1.3,1.1,1,1.9C329.4,207.7,328.8,208.1,328.1,208.1L328.1,208.1z M317.1,204.8c-0.1,0-0.3,0-0.4-0.1l-3.4-1&#10;&#9;&#9;c-0.8-0.2-1.2-1.1-1-1.9s1.1-1.2,1.9-1l3.4,1c0.8,0.2,1.3,1.1,1,1.9C318.3,204.3,317.7,204.8,317.1,204.8L317.1,204.8z"/>
	<path class="st4_map-65" d="M302.7,203.4c-0.8,0-1.5-0.7-1.5-1.5c0-0.5,0.2-0.9,0.6-1.2l3.5-2.5l4.1,1.2c0.8,0.3,1.2,1.1,1,1.9&#10;&#9;&#9;c-0.3,0.8-1.1,1.2-1.8,1l-2.7-0.8l-2.3,1.6C303.3,203.3,303,203.4,302.7,203.4z"/>
	<path class="st4_map-65" d="M239,248c-0.5,0-1-0.2-1.2-0.6c-0.5-0.7-0.3-1.6,0.4-2.1c0,0,0,0,0,0l3.1-2.2c0.7-0.5,1.6-0.3,2.1,0.4&#10;&#9;&#9;c0.5,0.7,0.3,1.6-0.4,2.1l-3.1,2.2C239.6,247.9,239.3,248,239,248z M248.2,241.6c-0.5,0-0.9-0.2-1.2-0.6c-0.5-0.7-0.3-1.6,0.4-2.1&#10;&#9;&#9;c0,0,0,0,0,0l4.3-3c0.7-0.5,1.6-0.3,2.1,0.4c0.5,0.7,0.3,1.6-0.4,2.1l-4.3,3C248.8,241.5,248.5,241.6,248.2,241.6L248.2,241.6z&#10;&#9;&#9; M258.6,234.3c-0.5,0-0.9-0.2-1.2-0.6c-0.5-0.7-0.3-1.6,0.4-2.1c0,0,0,0,0,0l4.3-3c0.7-0.5,1.6-0.3,2.1,0.4&#10;&#9;&#9;c0.5,0.7,0.3,1.6-0.4,2.1l-4.3,3C259.2,234.2,258.9,234.3,258.6,234.3L258.6,234.3z M269,227c-0.8,0-1.5-0.7-1.5-1.5&#10;&#9;&#9;c0-0.5,0.2-1,0.6-1.2l4.3-3c0.7-0.5,1.6-0.3,2.1,0.4c0.5,0.7,0.3,1.6-0.4,2.1l0,0l-4.3,3C269.6,226.9,269.3,227,269,227z&#10;&#9;&#9; M279.4,219.7c-0.5,0-1-0.2-1.2-0.6c-0.5-0.7-0.3-1.6,0.4-2.1l4.3-3c0.7-0.5,1.6-0.3,2.1,0.4c0.5,0.7,0.3,1.6-0.4,2.1l0,0l-4.3,3&#10;&#9;&#9;C280,219.7,279.7,219.8,279.4,219.7L279.4,219.7z M289.8,212.4c-0.8,0-1.5-0.6-1.5-1.5c0-0.5,0.2-1,0.6-1.2l4.3-3&#10;&#9;&#9;c0.7-0.5,1.6-0.3,2.1,0.4c0.5,0.7,0.3,1.6-0.4,2.1l0,0l-4.3,3C290.4,212.4,290.1,212.5,289.8,212.4L289.8,212.4z"/>
	<path class="st4_map-65" d="M231.7,253.1c-0.8,0-1.5-0.7-1.5-1.5c0-0.5,0.2-1,0.6-1.2l2.9-2.1c0.7-0.5,1.6-0.3,2.1,0.4&#10;&#9;&#9;c0.5,0.7,0.3,1.6-0.4,2.1l-2.9,2.1C232.3,253,232,253.1,231.7,253.1z"/>
	<polyline class="st1_map-65" points="281.9,229.5 301.9,288.9 385,288.9 376.9,296.4 297.1,296.4 275,233.9 &#9;"/>
	<polygon class="st1_map-65" points="272.7,119 301.9,189.9 312.5,192.8 284.3,125.9 &#9;"/>
	<polyline class="st1_map-65" points="112.9,240.4 173,280 180.6,272.7 119.7,235.6 &#9;"/>
	<path class="st1_map-65" d="M67.3,302.3c-0.5,0.9,72.9-43.8,72.9-43.8l60.1-39.2l-5.2-29.4l-3.1,2.9l4.8,25.2L62.4,300.6"/>
	<path class="st1_map-65" d="M169.4,302.3c0,0,76.7-14.1,97.2,19.2s6.1,42.4,6.1,42.4l13-7.4c0,0,0.7-39.6-37.6-55.9s-71.5-6.8-71.5-6.8"/>
</g>
<g id="Shadow_map_map-65">
	
		<linearGradient id="SVGID_1_-map-65" gradientUnits="userSpaceOnUse" x1="188.1009" y1="-1374.0389" x2="209.7309" y2="-1391.1688" gradientTransform="matrix(1 0 0 1 0 1745.78)">
		<stop offset="0" style="stop-color:#000000;stop-opacity:0"/>
		<stop offset="1" style="stop-color:#000000"/>
	</linearGradient>
	<path class="st5_map-65" d="M179.8,367.6c0.8-0.4,23.7-8.5,23.7-8.5l4.3,7.7l-13.9,8.9L179.8,367.6z"/>
	
		<linearGradient id="SVGID_00000137847148422755415670000014132205337715100069_-map-65" gradientUnits="userSpaceOnUse" x1="228.8603" y1="-1371.1196" x2="257.1103" y2="-1386.7495" gradientTransform="matrix(1 0 0 1 0 1745.78)">
		<stop offset="0" style="stop-color:#000000;stop-opacity:0"/>
		<stop offset="1" style="stop-color:#000000"/>
	</linearGradient>
	<path style="opacity:0.28;fill:url(#SVGID_00000137847148422755415670000014132205337715100069_);enable-background:new    ;" d="&#10;&#9;&#9;M214.6,374.8c0.8-0.4,31.5-11.6,31.5-11.6l3.4,3.6l-22.1,16.4L214.6,374.8z"/>
	
		<linearGradient id="SVGID_00000167394970338471065880000012027168729956780947_-map-65" gradientUnits="userSpaceOnUse" x1="204.2222" y1="-1392.0908" x2="226.7222" y2="-1406.2307" gradientTransform="matrix(1 0 0 1 0 1745.78)">
		<stop offset="0" style="stop-color:#000000;stop-opacity:0"/>
		<stop offset="1" style="stop-color:#000000"/>
	</linearGradient>
	<path style="opacity:0.28;fill:url(#SVGID_00000167394970338471065880000012027168729956780947_);enable-background:new    ;" d="&#10;&#9;&#9;M193,349.9c1.3-0.6,34.6-12.4,34.6-12.4l4.1,6.8l-25.4,18.9L193,349.9z"/>
	
		<linearGradient id="SVGID_00000167371556804665732100000004697880309964834956_-map-65" gradientUnits="userSpaceOnUse" x1="313.8863" y1="-1464.2057" x2="342.1363" y2="-1482.2758" gradientTransform="matrix(1 0 0 1 0 1745.78)">
		<stop offset="0" style="stop-color:#000000;stop-opacity:0"/>
		<stop offset="1" style="stop-color:#000000"/>
	</linearGradient>
	<path style="opacity:0.28;fill:url(#SVGID_00000167371556804665732100000004697880309964834956_);enable-background:new    ;" d="&#10;&#9;&#9;M329.5,269.5c-9.1,3.4-22.5,8.2-23,8.5l12.9,8.3l14.8-11C332.3,273.7,330.7,271.8,329.5,269.5z"/>
	
		<linearGradient id="SVGID_00000098926656279441162040000011659742614298501822_-map-65" gradientUnits="userSpaceOnUse" x1="67.244" y1="-1463.2806" x2="102.594" y2="-1488.7706" gradientTransform="matrix(1 0 0 1 0 1745.78)">
		<stop offset="0" style="stop-color:#000000;stop-opacity:0"/>
		<stop offset="1" style="stop-color:#000000"/>
	</linearGradient>
	<path style="opacity:0.28;fill:url(#SVGID_00000098926656279441162040000011659742614298501822_);enable-background:new    ;" d="&#10;&#9;&#9;M61.2,278c0.8-0.4,31.5-11.6,31.5-11.6l3.4,3.6l-22,16.4L61.2,278z"/>
	
		<linearGradient id="SVGID_00000047770142776223710810000008068446228515822220_-map-65" gradientUnits="userSpaceOnUse" x1="127.4952" y1="-1498.6277" x2="154.9352" y2="-1516.1775" gradientTransform="matrix(1 0 0 1 0 1745.78)">
		<stop offset="0" style="stop-color:#000000;stop-opacity:0"/>
		<stop offset="1" style="stop-color:#000000"/>
	</linearGradient>
	<path style="opacity:0.28;fill:url(#SVGID_00000047770142776223710810000008068446228515822220_);enable-background:new    ;" d="&#10;&#9;&#9;M143.6,235.6c-9.1,3.4-22.4,8.2-23,8.5l11.7,7.5l14-12.2C144.2,237.8,144.7,237.8,143.6,235.6z"/>
	
		<linearGradient id="SVGID_00000029020610434928304420000010910803853688822195_-map-65" gradientUnits="userSpaceOnUse" x1="152.1151" y1="-1480.7677" x2="179.5551" y2="-1498.3177" gradientTransform="matrix(1 0 0 1 0 1745.78)">
		<stop offset="0" style="stop-color:#000000;stop-opacity:0"/>
		<stop offset="1" style="stop-color:#000000"/>
	</linearGradient>
	<path style="opacity:0.28;fill:url(#SVGID_00000029020610434928304420000010910803853688822195_);enable-background:new    ;" d="&#10;&#9;&#9;M168.2,253.4c-9.1,3.4-22.4,8.2-23,8.5l11.7,7.5l14-12.2C168.9,255.7,169.4,255.7,168.2,253.4z"/>
	
		<linearGradient id="SVGID_00000067234575120928732410000017698517272901659779_-map-65" gradientUnits="userSpaceOnUse" x1="149.8081" y1="-1510.7629" x2="177.2581" y2="-1528.313" gradientTransform="matrix(1 0 0 1 0 1745.78)">
		<stop offset="0" style="stop-color:#000000;stop-opacity:0"/>
		<stop offset="1" style="stop-color:#000000"/>
	</linearGradient>
	<path style="opacity:0.28;fill:url(#SVGID_00000067234575120928732410000017698517272901659779_);enable-background:new    ;" d="&#10;&#9;&#9;M165.9,223.4c-9.1,3.4-22.4,8.2-23,8.5l11.7,7.5l14-12.2C166.6,225.7,167.1,225.7,165.9,223.4z"/>
	
		<linearGradient id="SVGID_00000151503864024711635310000002946853378232446111_-map-65" gradientUnits="userSpaceOnUse" x1="200.1089" y1="-1476.3618" x2="246.5889" y2="-1506.0818" gradientTransform="matrix(1 0 0 1 0 1745.78)">
		<stop offset="0" style="stop-color:#000000;stop-opacity:0"/>
		<stop offset="1" style="stop-color:#000000"/>
	</linearGradient>
	<path style="opacity:0.28;fill:url(#SVGID_00000151503864024711635310000002946853378232446111_);enable-background:new    ;" d="&#10;&#9;&#9;M226.6,248.1c-15.3,6.2-37.5,15.2-38.4,15.7l19.5,13.9l23.3-22.5C227.7,252.2,228.5,252.2,226.6,248.1z"/>
</g>
<g id="Place_map-65">
	<path class="st14_map-65" d="M229.2,264.4c-13.7,0-24.4-5.1-24.4-11.6s10.7-11.6,24.4-11.6s24.4,5.1,24.4,11.6&#10;&#9;&#9;C253.7,259.3,243,264.4,229.2,264.4z M229.2,243.3c-12.2,0-22.4,4.4-22.4,9.6s10.3,9.6,22.4,9.6s22.4-4.4,22.4-9.6&#10;&#9;&#9;S241.4,243.3,229.2,243.3L229.2,243.3z"/>
	<path class="st15_map-65" d="M270.2,171.2c0-0.4,0-0.8-0.1-1.3c-1.1-13.9-10.4-25.9-22.8-31.8c-18.8-8.7-41.1-0.5-49.8,18.3&#10;&#9;&#9;c-1.1,2.4-1.9,4.8-2.5,7.4c-2.9,13.1,1.8,26.5,6.6,38.5c7.5,18.8,17.3,36.7,29,53.3c6.3-8.7,12.1-17.7,17.5-27&#10;&#9;&#9;C258.3,211.2,271.4,192.3,270.2,171.2z"/>
	<circle class="st1_map-65" cx="231.8" cy="173.6" r="22.8"/>
</g>
<g id="Road_Sign_map-65">
	<ellipse class="st16_map-65" cx="94.2" cy="268.7" rx="12.2" ry="5.6"/>
	<path class="st0_map-65" d="M96.4,269.8l0.1-0.2V211h-4.6v58.7c0.8,1.3,2.5,1.6,3.8,0.8C95.9,270.3,96.2,270.1,96.4,269.8z"/>
	<path class="st16_map-65" d="M96.4,269.8l0.1-0.2V211h-2.1v59.9C95.2,270.8,95.9,270.4,96.4,269.8z"/>
	
		<ellipse transform="matrix(0.2292 -0.9734 0.9734 0.2292 -134.1693 255.9081)" class="st15_map-65" cx="94.5" cy="212.7" rx="15.4" ry="13.5"/>
	
		<ellipse transform="matrix(0.2292 -0.9734 0.9734 0.2292 -134.0473 256.4551)" class="st1_map-65" cx="94.9" cy="212.9" rx="12.7" ry="11.1"/>
	<path class="st15_map-65" d="M101.2,201.1l-13.3,22.1c0,0,2.1,5.4,3.1,3s13.4-22.8,13.4-22.8L101.2,201.1z"/>
</g>
<g id="Trees_map-65">
	<path class="st4_map-65" d="M169,243.2L169,243.2c1.5,0,2.7,1.2,2.7,2.7v9.9c0,1.5-1.2,2.7-2.7,2.7h0c-1.5,0-2.7-1.2-2.7-2.7v-9.9&#10;&#9;&#9;C166.3,244.4,167.5,243.2,169,243.2z"/>
	<circle class="st14_map-65" cx="169" cy="243.2" r="10.3"/>
	<path class="st17_map-65" d="M169,232.9c-0.6,0-1.2,0-1.7,0.1c4.2,2.4,6.6,7.1,6,11.9c-0.5,3.7-3,6.9-6.5,8.2c5.5,1.3,11.1-2,12.4-7.6&#10;&#9;&#9;s-2-11.1-7.6-12.4c-0.1,0-0.3-0.1-0.4-0.1C170.5,233,169.7,232.9,169,232.9L169,232.9z"/>
	<path class="st4_map-65" d="M142.2,221.9h1.3c1.5,0,2.7,1.2,2.7,2.7v13.7c0,1.5-1.2,2.7-2.7,2.7h-1.3c-1.5,0-2.7-1.2-2.7-2.7v-13.7&#10;&#9;&#9;C139.6,223.1,140.7,221.9,142.2,221.9z"/>
	<circle class="st14_map-65" cx="142.9" cy="221.9" r="12.8"/>
	<path class="st17_map-65" d="M142.9,209.1c-0.7,0-1.4,0.1-2.2,0.2c5.3,3,8.3,8.9,7.6,14.9c-0.6,4.7-3.7,8.6-8.1,10.2&#10;&#9;&#9;c7,1.3,13.7-3.3,15-10.2c1.2-6.5-2.7-12.9-9-14.8C145.1,209.2,144,209.1,142.9,209.1z"/>
	<path class="st4_map-65" d="M166.8,212.7L166.8,212.7c1.5,0,2.7,1.2,2.7,2.7v9.9c0,1.5-1.2,2.7-2.7,2.7h0c-1.5,0-2.7-1.2-2.7-2.7v-9.9&#10;&#9;&#9;C164.1,213.9,165.3,212.7,166.8,212.7z"/>
	<circle class="st14_map-65" cx="166.8" cy="212.7" r="10.3"/>
	<path class="st17_map-65" d="M166.8,202.4c-0.6,0-1.2,0.1-1.7,0.2c4.2,2.4,6.6,7.1,6,11.9c-0.5,3.7-3,6.9-6.5,8.2c5.5,1.3,11.1-2,12.4-7.6&#10;&#9;&#9;c1.3-5.5-2-11.1-7.6-12.4c-0.1,0-0.3-0.1-0.4-0.1C168.3,202.5,167.5,202.4,166.8,202.4L166.8,202.4z"/>
</g>
<g id="Trees-2_map-65">
	<path class="st4_map-65" d="M228.5,297.8h1.4c1.6,0,2.9,1.3,2.9,2.9v41.7c0,1.6-1.3,2.9-2.9,2.9h-1.4c-1.6,0-2.9-1.3-2.9-2.9v-41.7&#10;&#9;&#9;C225.7,299.1,227,297.8,228.5,297.8z"/>
	<path class="st14_map-65" d="M246.9,307.5c-1.6-7.1-9-38.7-22-29.4c-6.6,4.8-8.6,12.2-11.2,19.4c-2.4,6-3.8,12.3-4.1,18.8&#10;&#9;&#9;c-0.2,13.1,13.2,14.7,23.4,14.7c5.9,0,14.3-3.5,15.7-9.9c0.8-3.9-0.6-8.4-1.4-12.2L246.9,307.5z"/>
	<path class="st17_map-65" d="M247.5,308.9l-0.3-1.4c-1.4-6.3-7.4-31.7-17.7-31.1c3.1,13.4,7.6,27.5,5.2,41.2c-0.8,4.8-2.6,9.3-5.5,13.3&#10;&#9;&#9;c1.4,0,2.7,0.1,4,0.1c5.9,0,14.3-3.5,15.7-9.9C249.8,317.2,248.4,312.6,247.5,308.9z"/>
	<path class="st4_map-65" d="M247.1,334.8L247.1,334.8c1.4,0,2.5,1.1,2.5,2.5v28.1c0,1.4-1.1,2.5-2.5,2.5h0c-1.4,0-2.5-1.1-2.5-2.5v-28.1&#10;&#9;&#9;C244.6,335.9,245.7,334.8,247.1,334.8z"/>
	<path class="st14_map-65" d="M259.4,341.5c-1.2-5-6.3-27-15.3-20.5c-4.6,3.3-6,8.5-7.8,13.5c-1.7,4.2-2.6,8.6-2.9,13.1&#10;&#9;&#9;c-0.1,9.1,9.2,10.3,16.3,10.2c4.1,0,10-2.4,10.9-6.9c0.6-2.7-0.4-5.9-1-8.5L259.4,341.5z"/>
	<path class="st17_map-65" d="M259.9,342.5l-0.2-1c-1-4.4-5.1-22.1-12.3-21.7c2.1,9.3,5.3,19.2,3.6,28.8c-0.5,3.3-1.8,6.5-3.8,9.2h2.9&#10;&#9;&#9;c4.1,0,10-2.5,10.9-6.9C261.4,348.3,260.4,345.2,259.9,342.5z"/>
	<path class="st4_map-65" d="M204.6,322.5h1.1c1.6,0,2.9,1.3,2.9,2.9V365c0,1.6-1.3,2.9-2.9,2.9h-1.1c-1.6,0-2.9-1.3-2.9-2.9v-39.6&#10;&#9;&#9;C201.7,323.8,203,322.5,204.6,322.5z"/>
	<path class="st14_map-65" d="M222,331.8c-1.6-6.8-8.6-37-21-28.1c-6.4,4.5-8.2,11.6-10.7,18.6c-2.3,5.7-3.7,11.8-4,18&#10;&#9;&#9;c-0.2,12.5,12.6,14.1,22.3,14c5.6,0,13.6-3.4,15-9.5c0.8-3.7-0.6-8-1.3-11.6L222,331.8z"/>
	<path class="st17_map-65" d="M222.6,333.1l-0.3-1.3c-1.4-6-7-30.3-16.9-29.7c2.9,12.8,7.2,26.3,4.9,39.4c-0.7,4.6-2.5,8.9-5.2,12.7&#10;&#9;&#9;c1.3,0,2.6,0.1,3.8,0.1c5.6,0,13.7-3.4,15-9.5C224.8,341.1,223.4,336.7,222.6,333.1z"/>
</g>
<g id="Road_Sign-2_map-65">
	<path class="st18_map-65" d="M334.1,275.9l0.2-0.2V217h-7.7v58.7C328.8,277.3,331.8,277.4,334.1,275.9z"/>
	<polygon class="st18_map-65" points="330.5,237.1 317.8,244.9 313.3,242.3 315.1,236.6 327.4,229.4 &#9;"/>
	<polygon class="st4_map-65" points="327.4,230.9 316.3,237.5 314.3,242.9 317.8,244.9 327.2,239.1 &#9;"/>
	<polyline class="st18_map-65" points="331.3,224.3 341.9,218.7 346.7,221.7 341.9,226.7 334.5,228.4 &#9;"/>
	<path class="st4_map-65" d="M334.1,275.9l0.2-0.2V217h-3.4v60C332,276.9,333.1,276.5,334.1,275.9z"/>
	<polyline class="st4_map-65" points="330.9,226.4 344.1,219.8 346.7,221.7 345.7,225.7 332.9,233 &#9;"/>
	<ellipse class="st4_map-65" cx="330.5" cy="217.1" rx="3.8" ry="1.9"/>
</g>
</svg>