<svg id="_0013_authentication" xmlns="http://www.w3.org/2000/svg" xmlns:xlink="http://www.w3.org/1999/xlink" viewBox="0 0 500 500" data-imageid="authentication-65" imageName="Authentication" class="illustrations_image" style="width: 144px;"><defs><style>.cls-1_authentication-65{fill:url(#linear-gradient);opacity:.22;}.cls-1_authentication-65,.cls-2_authentication-65,.cls-3_authentication-65,.cls-4_authentication-65,.cls-5_authentication-65,.cls-6_authentication-65,.cls-7_authentication-65,.cls-8_authentication-65,.cls-9_authentication-65,.cls-10_authentication-65,.cls-11_authentication-65,.cls-12_authentication-65,.cls-13_authentication-65,.cls-14_authentication-65,.cls-15_authentication-65,.cls-16_authentication-65,.cls-17_authentication-65,.cls-18_authentication-65,.cls-19_authentication-65,.cls-20_authentication-65,.cls-21_authentication-65,.cls-22_authentication-65,.cls-23_authentication-65{stroke-width:0px;}.cls-1_authentication-65,.cls-2_authentication-65,.cls-11_authentication-65,.cls-23_authentication-65{isolation:isolate;}.cls-2_authentication-65,.cls-11_authentication-65{opacity:.18;}.cls-2_authentication-65,.cls-22_authentication-65{fill:#68e1fd;}.cls-3_authentication-65{fill:url(#linear-gradient-11-authentication-65);}.cls-4_authentication-65{fill:url(#linear-gradient-12-authentication-65);}.cls-5_authentication-65{fill:url(#linear-gradient-13-authentication-65);}.cls-6_authentication-65{fill:url(#linear-gradient-10-authentication-65);}.cls-7_authentication-65{fill:url(#linear-gradient-17-authentication-65);}.cls-8_authentication-65{fill:url(#linear-gradient-16-authentication-65);}.cls-9_authentication-65{fill:url(#linear-gradient-15-authentication-65);}.cls-10_authentication-65{fill:url(#linear-gradient-14-authentication-65);}.cls-11_authentication-65{fill:#1d2741;}.cls-24_authentication-65{stroke:#a0a0a0;stroke-miterlimit:10;stroke-width:.65px;}.cls-24_authentication-65,.cls-20_authentication-65{fill:#fff;}.cls-12_authentication-65{fill:url(#linear-gradient-2-authentication-65);}.cls-13_authentication-65{fill:url(#linear-gradient-3-authentication-65);}.cls-14_authentication-65{fill:url(#linear-gradient-8-authentication-65);}.cls-15_authentication-65{fill:url(#linear-gradient-9-authentication-65);}.cls-16_authentication-65{fill:url(#linear-gradient-7-authentication-65);}.cls-17_authentication-65{fill:url(#linear-gradient-5-authentication-65);}.cls-18_authentication-65{fill:url(#linear-gradient-6-authentication-65);}.cls-19_authentication-65{fill:#231f20;}.cls-21_authentication-65{fill:#ffaa71;}.cls-23_authentication-65{fill:url(#linear-gradient-4-authentication-65);opacity:.21;}</style><linearGradient id="linear-gradient-authentication-65" x1="-294.25" y1="1414.66" x2="170.76" y2="1414.66" gradientTransform="translate(313.9 1612.94) scale(1 -1)" gradientUnits="userSpaceOnUse"><stop offset="0" stop-color="#68e1fd"/><stop offset="1" stop-color="#68e1fd"/></linearGradient><linearGradient id="linear-gradient-2-authentication-65" x1="-360.56" y1="1476.63" x2="347.04" y2="1332.2" gradientTransform="translate(313.9 1612.94) scale(1 -1)" gradientUnits="userSpaceOnUse"><stop offset="0" stop-color="#fff" stop-opacity="0"/><stop offset="1" stop-color="#fff"/></linearGradient><linearGradient id="linear-gradient-3-authentication-65" x1="-333.97" y1="1523.59" x2="497.05" y2="1540.4" gradientTransform="translate(313.9 1612.94) scale(1 -1)" gradientUnits="userSpaceOnUse"><stop offset="0" stop-color="#231f20" stop-opacity="0"/><stop offset="1" stop-color="#231f20"/></linearGradient><linearGradient id="linear-gradient-4-authentication-65" x1="17.64" y1="1364.41" x2="201.51" y2="1191.3" gradientTransform="translate(313.9 1612.94) scale(1 -1)" gradientUnits="userSpaceOnUse"><stop offset="0" stop-color="#000" stop-opacity="0"/><stop offset=".02" stop-color="#030304" stop-opacity=".04"/><stop offset=".18" stop-color="#181821" stop-opacity=".39"/><stop offset=".35" stop-color="#292839" stop-opacity=".66"/><stop offset=".53" stop-color="#363449" stop-opacity=".85"/><stop offset=".73" stop-color="#3d3b53" stop-opacity=".96"/><stop offset=".99" stop-color="#3f3d56"/></linearGradient><linearGradient id="linear-gradient-5-authentication-65" x1="107.93" y1="1319.81" x2="-48.85" y2="1273.52" xlink:href="#linear-gradient-3-authentication-65"/><linearGradient id="linear-gradient-6-authentication-65" x1="-28.23" y1="1433.25" x2="-27.87" y2="1442.8" gradientTransform="translate(409 1782.94) scale(1 -1)" xlink:href="#linear-gradient-3-authentication-65"/><linearGradient id="linear-gradient-7-authentication-65" x1="73.01" y1="1320.87" x2="21.11" y2="1341.19" xlink:href="#linear-gradient-2-authentication-65"/><linearGradient id="linear-gradient-8-authentication-65" x1="-44.02" y1="-473.37" x2="-40.99" y2="-460.01" gradientTransform="translate(409 940.5)" xlink:href="#linear-gradient-3-authentication-65"/><linearGradient id="linear-gradient-9-authentication-65" x1="-21.03" y1="-469.74" x2="-18.69" y2="-455.84" gradientTransform="translate(409 940.5)" xlink:href="#linear-gradient-3-authentication-65"/><linearGradient id="linear-gradient-10-authentication-65" x1="-159.09" y1="1440.63" x2="-303.33" y2="1386.2" gradientTransform="translate(409 1612.94) scale(1 -1)" xlink:href="#linear-gradient-3-authentication-65"/><linearGradient id="linear-gradient-11-authentication-65" x1="-130.16" y1="1647.01" x2="-152.47" y2="1456.37" gradientTransform="translate(409 1782.94) scale(1 -1)" xlink:href="#linear-gradient-3-authentication-65"/><linearGradient id="linear-gradient-12-authentication-65" x1="-169.32" y1="1440.36" x2="-94.08" y2="1440.12" gradientTransform="translate(409 1612.94) scale(1 -1)" xlink:href="#linear-gradient-3-authentication-65"/><linearGradient id="linear-gradient-13-authentication-65" x1="-147.65" y1="1649.06" x2="-169.96" y2="1458.42" gradientTransform="translate(409 1782.94) scale(1 -1)" xlink:href="#linear-gradient-3-authentication-65"/><linearGradient id="linear-gradient-14-authentication-65" x1="-145.09" y1="1382.88" x2="-120.49" y2="1448.69" gradientTransform="translate(409 1612.94) scale(1 -1)" xlink:href="#linear-gradient-3-authentication-65"/><linearGradient id="linear-gradient-15-authentication-65" x1="-107.94" y1="1388.9" x2="-126.62" y2="1454.02" gradientTransform="translate(409 1612.94) scale(1 -1)" xlink:href="#linear-gradient-3-authentication-65"/><linearGradient id="linear-gradient-16-authentication-65" x1="-116.74" y1="1440.46" x2="-210" y2="1307.64" gradientTransform="translate(409 1612.94) scale(1 -1)" xlink:href="#linear-gradient-3-authentication-65"/><linearGradient id="linear-gradient-17-authentication-65" x1="-106.55" y1="1433.3" x2="-199.81" y2="1300.48" gradientTransform="translate(409 1612.94) scale(1 -1)" xlink:href="#linear-gradient-3-authentication-65"/></defs><g id="windows_authentication-65"><path class="cls-1_authentication-65" d="M484.66,96.36v203.84c0,12.47-10.1,22.58-22.57,22.59H42.24c-12.47,0-22.58-10.12-22.59-22.59h0V96.36c.01-12.47,10.12-22.57,22.59-22.59h419.85c12.46.02,22.56,10.12,22.57,22.59Z"/><path class="cls-22_authentication-65 targetColor" d="M485.76,95.61v203.84c.03,12.44-10.03,22.55-22.47,22.59H43.33c-12.47,0-22.59-10.09-22.59-22.56h0s0,0,0,0V95.61c.02-12.47,10.12-22.58,22.59-22.59h419.85c11.35,0,20.93,8.43,22.39,19.68.13.97.19,1.94.19,2.91Z" style="fill: rgb(1, 111, 84);"/><path class="cls-12_authentication-65" d="M485.76,95.61v203.84c.03,12.44-10.03,22.55-22.47,22.59H43.33c-12.47,0-22.59-10.09-22.59-22.56h0s0,0,0,0V95.61c.02-12.47,10.12-22.58,22.59-22.59h419.85c11.35,0,20.93,8.43,22.39,19.68.13.97.19,1.94.19,2.91Z"/><path class="cls-13_authentication-65" d="M484.48,93.46H19.84c1.46-11.26,11.05-19.68,22.4-19.68h419.85c11.35,0,20.94,8.42,22.4,19.68Z"/></g><g id="Background_authentication-65"><path class="cls-2_authentication-65 targetColor" d="M468.13,369.81c-4.35,50.12-142.25,34.07-241.42,13.75-99.17-20.32-180.99,20.32-199.86-13.75-8.36-15.08-2.79-33.91,6.05-50.23,3.36,1.88,7.15,2.86,11,2.84h416.11c5.73,13.49,9.67,29.63,8.12,47.4Z" style="fill: rgb(1, 111, 84);"/><path class="cls-2_authentication-65 targetColor" d="M107.77,74.16s94.16-59.73,214.74,0H107.77Z" style="fill: rgb(1, 111, 84);"/></g><path id="shadow_authentication-65" class="cls-11_authentication-65" d="M292.79,480.08c4.73,1.95,9.96,2.24,15.07,2.48,43.09,2.08,86.21,3.08,129.36,2.99,4.31,0,8.72-.04,12.76-1.54,4.04-1.5,7.7-4.78,8.41-9.04-27.02-2.1-54.23-1.89-81.15-2.89-14.11-.52-28.77,1.25-42.81,2.59-7.12.68-14.22,1.49-21.31,2.41-4.45.58-16.37,4.64-20.33,3Z"/><path class="cls-23_authentication-65" d="M359,240.33c-.31,4.53-.06,9.08.73,13.56.5,2.77,1.17,5.81-.26,8.25-.73,1.32-2.05,2.24-3.24,3.22-7.5,6.16-11.83,15.31-18.24,22.6-.43.6-1.04,1.04-1.75,1.24-.73.05-1.45-.16-2.04-.58-3.9-2.25-7.18-5.44-9.54-9.27-1.15-1.88-2.2-4.02-4.18-4.98-3.67-1.8-8.11,2.03-8.52,6.12s1.79,7.93,3.91,11.44l9.81,16.27c2.99,4.96,6.13,10.09,11,13.2,3.37,2.05,7.16,3.33,11.08,3.74,5.56.73,11.2.37,16.8-.07,10.23-.79,20.44-1.81,30.63-3.05,3.49-.43,7.46-1.19,9.23-4.22,1.19-2.04,1.03-4.56.82-6.9-.72-8.5-1.45-17.01-2.2-25.51-.4-4.82-1-10.06-4.4-13.49-2.03-2.04-4.88-3.2-6.68-5.45-1.29-1.8-2.12-3.9-2.42-6.1-1.74-9.17-.07-19.02-3.67-27.66-.73-1.75-1.72-3.48-3.34-4.45-1.49-.77-3.16-1.11-4.83-.98-8.03.23-18.13,4.06-18.72,13.06Z"/><g id="password_authentication-65"><rect class="cls-24_authentication-65" x="160.14" y="252.28" width="168.79" height="21.18" rx="5.81" ry="5.81"/><path class="cls-22_authentication-65 targetColor" d="M340.33,261.89v-2.44h1.92v-1.57h-1.92v-1.17h1.92v-1.57h-3.85v6.75c-2.61.53-4.29,3.08-3.76,5.69s3.08,4.29,5.69,3.76c2.61-.53,4.29-3.08,3.76-5.69-.39-1.89-1.87-3.37-3.76-3.76h0ZM339.37,269.96c-1.85,0-3.36-1.49-3.36-3.35s1.49-3.36,3.35-3.36,3.36,1.49,3.36,3.35h0c0,1.85-1.5,3.35-3.35,3.36Z" style="fill: rgb(1, 111, 84);"/><circle class="cls-22_authentication-65 targetColor" cx="173.9" cy="263.16" r="4.61" style="fill: rgb(1, 111, 84);"/><circle class="cls-22_authentication-65 targetColor" cx="188.26" cy="263.16" r="4.61" style="fill: rgb(1, 111, 84);"/><circle class="cls-22_authentication-65 targetColor" cx="202.62" cy="263.16" r="4.61" style="fill: rgb(1, 111, 84);"/><circle class="cls-22_authentication-65 targetColor" cx="216.98" cy="263.16" r="4.61" style="fill: rgb(1, 111, 84);"/></g><g id="character_authentication-65"><path class="cls-22_authentication-65 targetColor" d="M377.17,466.81l3.32,8.16-13.42,6.35-12.4.9s-2.12-8.16,3.67-8.89c3.38-.39,6.61-1.64,9.37-3.62l9.46-2.9Z" style="fill: rgb(1, 111, 84);"/><path class="cls-22_authentication-65 targetColor" d="M387.83,470.5h0c-3.43,1.42-5.8,4.6-6.18,8.29l-.36,3.44h15.24v-11.74h-8.71Z" style="fill: rgb(1, 111, 84);"/><path class="cls-19_authentication-65" d="M359.8,348.98l-9.03,65.77c-.38,2.77-.09,5.59.84,8.22l16.14,47.52,9.43-2.93-7.12-47.3c-.15-.98-.09-1.98.19-2.93l12.24-42.28,5.33,95.36h8.71l7.5-94.09c2.54-15.73-2.11-27.34-2.11-27.34h-42.13Z"/><path class="cls-22_authentication-65 targetColor" d="M406.08,331.57l-8.93-57.56-1.25-7.01s16.68,9.54,21.46,26.22c6.26,21.9-11.28,38.35-11.28,38.35Z" style="fill: rgb(1, 111, 84);"/><path class="cls-17_authentication-65" d="M406.08,331.57l-8.93-57.56-1.25-7.01s16.68,9.54,21.46,26.22c6.26,21.9-11.28,38.35-11.28,38.35Z"/><path class="cls-22_authentication-65 targetColor" d="M415.25,318.17c6.77-13.39-6.6-36.68-6.6-36.68l-11.52-7.48,1.3-8.31s18.57,1.9,20.39,28.12c.63,8.44-.03,18.87-3.57,24.34Z" style="fill: rgb(1, 111, 84);"/><path class="cls-21_authentication-65" d="M319.55,273.24c-.62-2.11-1.71-4.63-3.91-4.82.59,1.93.5,4-.25,5.87-4.8-1.78-5.91-8.8-10.7-10.62-.73.78-.32,2.05.13,3.01.84,1.8,1.68,3.61,2.52,5.41-1.12-1.77-2.32-3.48-3.59-5.13-.37-.51-1.02-1.06-1.55-.73s-.34,1-.15,1.53c.84,2.35,1.79,4.66,2.84,6.92-1.18-1.98-2.52-3.85-4.03-5.59-.98.24-.78,1.69-.35,2.61l3.15,6.7-2.52-3.67c-.81.08-.69,1.33-.29,2.05,3.38,6.04,8.67,10.8,15.04,13.52,1.29.55,2.79,1,4.06.41,5.46-2.49.66-13.85-.4-17.47Z"/><path class="cls-22_authentication-65 targetColor" d="M406.08,291.04v45.13c0,5.53-.9,10.03-6.44,10.03h-38.67c-5.52,0-5.73-4.45-5.77-9.96l-.31-30.67s-8.35,14.87-15.01,13.42c-6.66-1.45-26.41-28.67-26.41-28.67l9.87-8.26,16.56,16.61s2.66-6.05,6.54-19.6c3.87-13.55,16.44-13.59,16.44-13.59h33.63c12.14,0,9.57,25.56,9.57,25.56Z" style="fill: rgb(1, 111, 84);"/><path class="cls-19_authentication-65" d="M406.08,296.12s5.81,8.16,0,16.33v-16.33Z"/><rect class="cls-22_authentication-65 targetColor" x="359.8" y="345.91" width="42.11" height="3.07" style="fill: rgb(1, 111, 84);"/><rect class="cls-18_authentication-65" x="359.8" y="345.91" width="42.11" height="3.07"/><rect class="cls-21_authentication-65" x="374.14" y="234.79" width="12.16" height="30.91"/><path class="cls-21_authentication-65" d="M386.3,231.4v34.3h-6.41v-2.09c0-2.55-2.08-4.62-4.63-4.63h-.37c-6.36,0-11.52-5.16-11.52-11.52h0v-16.07h22.93Z"/><path class="cls-19_authentication-65" d="M363.37,234.79s-10.64-5.8-6.83-12.16c3.81-6.35,10.01-2.35,10.01-2.35h20.54s2.35-.37,3.26,3.62-3.99,28.76-3.99,28.76h-10.2l-1.31-6.44s2.03-2.2,1.85-4.54c.04-1.05-.78-1.94-1.83-1.98-.76-.03-1.46.39-1.79,1.08-.92,1.63-.55-5.27-3.81-5.99-1.94-.45-3.96-.45-5.9,0Z"/><path class="cls-16_authentication-65" d="M383.58,265.64s-4.72,6.18-11.25,6.18-25.58,18.68-26.86,24.31-5.57,2.55-5.57,2.55c0,0,2.66-6.05,6.54-19.6,3.87-13.55,16.45-13.59,16.45-13.59h17.09l3.6.15Z"/><path class="cls-14_authentication-65" d="M377.17,466.81l3.32,8.16-13.42,6.35-12.4.9s-2.12-8.16,3.67-8.89c3.38-.39,6.61-1.64,9.37-3.62l9.46-2.9Z"/><path class="cls-15_authentication-65" d="M387.83,470.5h0c-3.43,1.42-5.8,4.6-6.18,8.29l-.36,3.44h15.24v-11.74h-8.71Z"/></g><g id="lock_authentication-65"><rect class="cls-6_authentication-65" x="216.44" y="139.92" width="65.39" height="65.39" rx="8.63" ry="8.63"/><rect class="cls-22_authentication-65 targetColor" x="220.44" y="139.92" width="61.38" height="65.39" rx="8.36" ry="8.36" style="fill: rgb(1, 111, 84);"/><path class="cls-20_authentication-65" d="M284.35,172.82l-3.37,3.21h0l-1.47,1.38c-2.34-2.8-5.89-4.31-9.54-4.04-.79.09-1.58-.04-2.3-.37-2.43-1.38,1.38-6.08,1.38-6.08.84-.01,1.68.02,2.51.11h.22l.67.08c3.21.45,8.35,1.97,11.9,5.72Z"/><path class="cls-3_authentication-65" d="M280.84,175.73l.13.3-1.47,1.38c-2.34-2.8-5.89-4.31-9.54-4.04-.79.09-1.58-.04-2.3-.37l1.38-6.08s1.36,0,2.51.11h.22c.22.01.45.04.67.08,0,0,.8,3.42.21,4.86,0,.02,5.63.96,8.19,3.77Z"/><rect class="cls-4_authentication-65" x="244.69" y="153.7" width="8.89" height="37.82" rx="3.31" ry="3.31"/><path class="cls-20_authentication-65" d="M269.96,172.1c-.08,8.24-6.77,14.88-15.02,14.89h-3.24c-1.45,0-2.61-1.18-2.61-2.63,0-.99.56-1.89,1.44-2.33.36-.18.76-.27,1.17-.27h1.22c5.41,0,9.79-4.38,9.79-9.79h0v-.21c-.18-5.38-4.61-9.63-9.99-9.59h-1.47c-1.18,0-2.14-.96-2.14-2.14h0v-.91c0-1.18.96-2.14,2.14-2.14h3.44c8.3,0,15.32,6.8,15.26,15.13Z"/><path class="cls-5_authentication-65" d="M265.95,172.7c-.06,7.16-5.87,12.93-13.03,12.95h-2.82c-.25,0-.5-.04-.73-.12-.64-1.29-.12-2.85,1.17-3.49,0,0,0,0,0,0h0c.36-.18.76-.27,1.17-.27h1.21c5.41,0,9.79-4.38,9.79-9.79h0v-.21c-.18-5.38-4.61-9.63-9.99-9.59h-1.47c-1.18,0-2.14-.96-2.14-2.14h0v-.4c.19-.06.39-.09.59-.1h2.99c7.28,0,13.21,5.88,13.26,13.16Z"/><path class="cls-20_authentication-65" d="M262.23,169s.98,2.63-.24,6.65c0,0-4.64,4.78-.68,12.37l3.27,3.5-3.81,3.75c-4.83-3.73-7.27-9.77-6.38-15.8.87-6.47,7.84-10.47,7.84-10.47Z"/><polygon class="cls-22_authentication-65 targetColor" points="257.52 198.29 287.67 169.68 312.97 191.52 281.82 221.39 257.52 198.29" style="fill: rgb(1, 111, 84);"/><polygon class="cls-22_authentication-65 targetColor" points="257.52 198.29 259.53 209.63 281.82 231.02 281.82 221.39 257.52 198.29" style="fill: rgb(1, 111, 84);"/><polygon class="cls-22_authentication-65 targetColor" points="312.97 191.52 312.97 201.93 281.82 231.02 281.82 221.39 312.97 191.52" style="fill: rgb(1, 111, 84);"/><polygon class="cls-10_authentication-65" points="257.52 198.29 259.53 209.63 281.82 231.02 281.82 221.39 257.52 198.29"/><polygon class="cls-9_authentication-65" points="312.97 191.52 312.97 201.93 281.82 231.02 281.82 221.39 312.97 191.52"/><polygon class="cls-8_authentication-65" points="263.08 203.58 293.52 174.72 296.33 177.15 265.95 206.3 263.08 203.58"/><polygon class="cls-7_authentication-65" points="272.07 211.93 303.23 183.08 306.04 185.5 274.94 214.65 272.07 211.93"/></g></svg>